# xmcd
#
# Track frame offsets: 
#        150
#        15130
#        35522
#        50217
#        70089
#        89379
#        107515
#        123588
#        143687
#        163107
#
# Disc length: 2388 seconds
#
# Revision: 0
# Processed by: cddbd v1.5.2PL0 Copyright (c) Steve Scherf et al.
# Submitted via: ExactAudioCopy v0.99pb5
#
DISCID=7f09520a
DTITLE=Cinta Laura - Cinta Laura
DYEAR=2010
DGENRE=Pop
TTITLE0=Cinta Atau Uang
TTITLE1=Cape Hati
TTITLE2=Shoot Me
TTITLE3=Ya Iya Lah
TTITLE4=You Say Aq
TTITLE5=Kebebasan
TTITLE6=We Can Do It
TTITLE7=Oh Baby
TTITLE8=Guardian Angel
TTITLE9=Let Me Go
EXTD=
EXTT0=
EXTT1=
EXTT2=
EXTT3=
EXTT4=
EXTT5=
EXTT6=
EXTT7=
EXTT8=
EXTT9=
PLAYORDER=
